<svg width="19" height="14" viewBox="0 0 19 14" fill="none" xmlns="http://www.w3.org/2000/svg">
<path d="M15.7378 1.36901C14.5903 0.851511 13.3603 0.469011 12.074 0.251511C12.0625 0.249312 12.0507 0.250729 12.0401 0.255566C12.0295 0.260404 12.0206 0.268422 12.0148 0.278511C11.8573 0.555261 11.6818 0.916011 11.5588 1.20101C10.1946 0.997188 8.80768 0.997188 7.4435 1.20101C7.3065 0.885156 7.15201 0.577179 6.98075 0.278511C6.97495 0.268298 6.96616 0.260098 6.95558 0.255006C6.94499 0.249914 6.9331 0.248171 6.9215 0.250011C5.636 0.467511 4.406 0.850011 3.25775 1.36826C3.24787 1.3724 3.2395 1.37947 3.23375 1.38851C0.899752 4.81976 0.260002 8.16626 0.574252 11.4708C0.575126 11.4789 0.577639 11.4867 0.581636 11.4938C0.585633 11.5009 0.591031 11.5071 0.597502 11.512C1.9598 12.5038 3.47925 13.2594 5.09225 13.747C5.1035 13.7505 5.11552 13.7505 5.12676 13.747C5.138 13.7435 5.14793 13.7367 5.15525 13.7275C5.50175 13.2625 5.81075 12.7713 6.07475 12.2553C6.0905 12.2253 6.0755 12.1893 6.044 12.1773C5.55951 11.9948 5.09007 11.7746 4.64 11.5188C4.63191 11.5141 4.6251 11.5076 4.62017 11.4997C4.61524 11.4918 4.61235 11.4828 4.61175 11.4735C4.61116 11.4642 4.61288 11.4549 4.61676 11.4465C4.62065 11.438 4.62657 11.4306 4.634 11.425C4.7285 11.3553 4.823 11.2825 4.913 11.2098C4.9211 11.2032 4.93086 11.1991 4.94119 11.1977C4.95152 11.1964 4.96201 11.198 4.9715 11.2023C7.91675 12.5253 11.1065 12.5253 14.0173 11.2023C14.0268 11.1977 14.0374 11.1959 14.0478 11.1971C14.0583 11.1983 14.0683 11.2024 14.0765 11.209C14.1665 11.2825 14.2603 11.3553 14.3555 11.425C14.363 11.4305 14.369 11.4378 14.373 11.4462C14.377 11.4546 14.3789 11.4638 14.3785 11.4731C14.378 11.4824 14.3753 11.4914 14.3705 11.4994C14.3657 11.5074 14.359 11.514 14.351 11.5188C13.9025 11.7768 13.436 11.995 12.9463 12.1765C12.9387 12.1792 12.9319 12.1835 12.9262 12.1891C12.9204 12.1947 12.916 12.2015 12.913 12.2089C12.9101 12.2164 12.9089 12.2244 12.9093 12.2324C12.9097 12.2403 12.9118 12.2482 12.9155 12.2553C13.1855 12.7705 13.4945 13.261 13.8343 13.7268C13.8413 13.7363 13.8512 13.7435 13.8624 13.7472C13.8737 13.751 13.8859 13.7512 13.8973 13.7478C15.513 13.2615 17.035 12.5056 18.3988 11.512C18.4054 11.5074 18.411 11.5013 18.4151 11.4944C18.4193 11.4874 18.4219 11.4796 18.4228 11.4715C18.7978 7.65101 17.7943 4.33151 15.761 1.39001C15.756 1.38045 15.7478 1.373 15.7378 1.36901ZM6.515 9.45851C5.6285 9.45851 4.89725 8.65676 4.89725 7.67351C4.89725 6.68951 5.61425 5.88851 6.515 5.88851C7.4225 5.88851 8.147 6.69626 8.13275 7.67351C8.13275 8.65751 7.41575 9.45851 6.515 9.45851ZM12.4963 9.45851C11.609 9.45851 10.8785 8.65676 10.8785 7.67351C10.8785 6.68951 11.5948 5.88851 12.4963 5.88851C13.4038 5.88851 14.1283 6.69626 14.114 7.67351C14.114 8.65751 13.4045 9.45851 12.4963 9.45851Z" fill="white"/>
</svg>
