<svg width="20" height="20" viewBox="0 0 20 20" fill="none" xmlns="http://www.w3.org/2000/svg">
<path d="M10 1.66675C5.405 1.66675 1.66667 5.40508 1.66667 10.0001C1.66667 14.5951 5.405 18.3334 10 18.3334C14.595 18.3334 18.3333 14.5951 18.3333 10.0001C18.3333 5.40508 14.595 1.66675 10 1.66675ZM10 16.6667C6.32417 16.6667 3.33333 13.6759 3.33333 10.0001C3.33333 6.32425 6.32417 3.33341 10 3.33341C13.6758 3.33341 16.6667 6.32425 16.6667 10.0001C16.6667 13.6759 13.6758 16.6667 10 16.6667Z" fill="#2ED9BA"/>
<path d="M12.3567 12.3566C11.8967 12.8178 11.3113 13.1337 10.6733 13.2649C10.2289 13.3541 9.77113 13.3541 9.32667 13.2649C9.11292 13.2206 8.90391 13.1558 8.7025 13.0716C8.50479 12.9872 8.31536 12.8845 8.13667 12.7649C7.78238 12.5234 7.47654 12.2176 7.235 11.8633L5.85333 12.7941C6.0325 13.0599 6.23833 13.3099 6.46417 13.5349C6.92784 14.0002 7.47877 14.3694 8.08539 14.6214C8.692 14.8733 9.34238 15.0031 9.99924 15.0032C10.6561 15.0034 11.3065 14.8739 11.9133 14.6223C12.52 14.3706 13.0711 14.0017 13.535 13.5366C13.7617 13.3108 13.9683 13.0608 14.1467 12.7941L12.765 11.8633C12.6458 12.0391 12.5092 12.2049 12.3567 12.3566Z" fill="#2ED9BA"/>
<path d="M7.08333 10C7.77369 10 8.33333 9.44036 8.33333 8.75C8.33333 8.05964 7.77369 7.5 7.08333 7.5C6.39298 7.5 5.83333 8.05964 5.83333 8.75C5.83333 9.44036 6.39298 10 7.08333 10Z" fill="#2ED9BA"/>
<path d="M12.9167 8.33325C11.25 8.33325 10.8333 9.99992 10.8333 9.99992H15C15 9.99992 14.5825 8.33325 12.9167 8.33325Z" fill="#2ED9BA"/>
</svg>
