<svg width="20" height="20" viewBox="0 0 20 20" fill="none" xmlns="http://www.w3.org/2000/svg">
<path d="M18.0906 5.38376C18.0603 5.30135 18.013 5.22626 17.9517 5.16337C17.8904 5.10048 17.8166 5.05121 17.735 5.01876L12.1725 2.80501C12.051 2.75666 11.9173 2.74766 11.7904 2.77928C11.6635 2.8109 11.5497 2.88154 11.465 2.98126C11.2742 3.26817 11.0206 3.50795 10.7235 3.68249C10.4264 3.85703 10.0935 3.96176 9.75 3.98876C9.45932 3.93534 9.18231 3.82411 8.93539 3.66168C8.68847 3.49925 8.47666 3.28892 8.3125 3.04314C8.23028 2.91889 8.1066 2.82787 7.96351 2.78632C7.82043 2.74477 7.66724 2.75538 7.53125 2.81626L2.1625 5.25001C2.08547 5.28489 2.01632 5.33504 1.95923 5.39742C1.90214 5.4598 1.8583 5.53312 1.83037 5.61294C1.80245 5.69275 1.791 5.7774 1.79674 5.86177C1.80248 5.94614 1.82527 6.02846 1.86375 6.10376L3.38563 9.09376C3.45945 9.23964 3.58749 9.35079 3.7423 9.40336C3.89711 9.45594 4.06636 9.44576 4.21375 9.37501L4.89 9.05001L5.03688 15.525C5.04953 15.9825 5.23957 16.4171 5.56685 16.7371C5.89412 17.057 6.33297 17.2371 6.79063 17.2394H13.1106C13.355 17.2393 13.5969 17.191 13.8226 17.0971C14.0482 17.0033 14.2531 16.8658 14.4255 16.6926C14.5978 16.5193 14.7343 16.3138 14.827 16.0877C14.9197 15.8616 14.9668 15.6194 14.9656 15.375L14.9238 8.95689L15.7038 9.21251C15.8441 9.25933 15.9964 9.25488 16.1337 9.19995C16.2711 9.14502 16.3845 9.04317 16.4538 8.91251L18.0588 5.89564C18.1 5.81742 18.1241 5.73136 18.1296 5.64312C18.1351 5.55488 18.1218 5.46648 18.0906 5.38376Z" fill="#2ED9BA"/>
</svg>
