<svg width="20" height="16" viewBox="0 0 20 16" fill="none" xmlns="http://www.w3.org/2000/svg">
<path d="M19.4799 12.5644C14.8519 10.1004 12.8359 14.2684 9.10392 15.1924C5.28792 16.1364 2.90792 12.0124 2.90792 12.0124V12.0084L2.91192 11.9884C4.88792 11.9284 7.10392 11.2164 9.25192 10.5284C11.3599 9.85636 13.3479 9.22036 14.9399 9.22036C15.3159 9.22036 15.6559 9.25636 15.9559 9.32836L16.1519 9.37636V9.38035C17.5319 10.1884 18.648 11.2324 19.5839 12.4484C19.6359 12.5164 19.5519 12.6004 19.4799 12.5644ZM5.13592 1.35636C4.35592 3.50036 3.43192 7.12836 4.15192 11.0644C2.88392 11.2604 1.70392 11.2524 0.703919 10.8684C0.515919 10.7963 0.39992 10.6084 0.39992 10.4084V8.81636C0.39992 5.54836 2.32792 2.62836 5.13592 1.35636ZM16.148 8.55236C15.46 8.38036 14.6759 8.38436 13.828 8.50435L13.788 8.38036C12.476 4.44836 10.988 2.09636 10.056 0.884356C13.548 1.68836 16.148 4.81636 16.148 8.55236ZM13.0279 8.63236C13.0239 8.63236 13.0239 8.63635 13.0199 8.63635C10.5159 9.13636 7.57992 10.3724 4.93992 10.9244C3.99328 5.77331 6.11924 1.07164 6.15192 0.940356C7.31996 0.557076 8.78924 0.683876 8.85836 0.700676C10.0784 2.02872 11.7119 4.68436 13.0279 8.63236Z" fill="#2ED9BA"/>
</svg>
